<?xml version="1.0" encoding="UTF-8"?>
<svg width="128px" height="32px" viewBox="0 0 128 32" version="1.1" xmlns="http://www.w3.org/2000/svg" xmlns:xlink="http://www.w3.org/1999/xlink">
    <title>管理系统</title>
    <g id="Logo" stroke="none" stroke-width="1" fill="none" fill-rule="evenodd">
        <g id="Group" transform="translate(0.000000, 2.000000)">
            <circle id="Oval" fill="#409EFF" cx="14" cy="14" r="14"></circle>
            <path d="M14,4 C18.418278,4 22,7.581722 22,12 C22,16.418278 18.418278,20 14,20 C9.581722,20 6,16.418278 6,12 C6,7.581722 9.581722,4 14,4 Z M14,6 C10.6862915,6 8,8.6862915 8,12 C8,15.3137085 10.6862915,18 14,18 C17.3137085,18 20,15.3137085 20,12 C20,8.6862915 17.3137085,6 14,6 Z" id="Combined-Shape" fill="#FFFFFF" fill-rule="nonzero"></path>
            <path d="M14,8 C16.209139,8 18,9.790861 18,12 C18,14.209139 16.209139,16 14,16 C11.790861,16 10,14.209139 10,12 C10,9.790861 11.790861,8 14,8 Z" id="Oval" fill="#FFFFFF"></path>
        </g>
        <text id="管理系统" font-family="PingFangSC-Semibold, PingFang SC" font-size="18" font-weight="500" fill="#409EFF">
            <tspan x="34" y="21">管理系统</tspan>
        </text>
    </g>
</svg>